<svg width="156" height="25" viewBox="0 0 156 25" fill="none" xmlns="http://www.w3.org/2000/svg">
<path d="M5.29332 24H0.350142L11.5043 2.18182H17.4489L21.348 24H16.4048L13.7521 7.16761H13.5817L5.29332 24ZM6.42259 15.424H18.0987L17.4808 19.0249H5.80469L6.42259 15.424ZM23.8888 24L26.6161 7.63636H31.016L30.5366 10.4915H30.707C31.1758 9.47585 31.8043 8.70881 32.5927 8.19034C33.3881 7.66477 34.244 7.40199 35.1602 7.40199C35.3874 7.40199 35.6254 7.41619 35.8739 7.4446C36.1296 7.46591 36.3569 7.50142 36.5558 7.55114L35.8739 11.5888C35.6751 11.5178 35.391 11.4609 35.0217 11.4183C34.6594 11.3686 34.315 11.3438 33.9883 11.3438C33.3278 11.3438 32.7134 11.4893 32.1452 11.7805C31.5771 12.0646 31.0977 12.4624 30.707 12.9737C30.3235 13.4851 30.0714 14.0746 29.9506 14.7422L28.4272 24H23.8888ZM42.7534 24.3196C41.0701 24.3196 39.6852 23.9645 38.5985 23.2543C37.519 22.5369 36.7626 21.5426 36.3294 20.2713C35.9032 19 35.8287 17.5369 36.1056 15.8821C36.3755 14.206 36.9402 12.7358 37.7995 11.4716C38.6589 10.2003 39.7491 9.20952 41.0701 8.49929C42.3983 7.78196 43.8897 7.4233 45.5446 7.4233C46.9721 7.4233 48.1795 7.68253 49.1667 8.20099C50.1539 8.71946 50.8784 9.44744 51.34 10.3849C51.8017 11.3224 51.9579 12.4233 51.8088 13.6875H47.5368C47.5439 12.8778 47.3343 12.2209 46.9082 11.7166C46.4821 11.2124 45.8571 10.9602 45.0332 10.9602C44.323 10.9602 43.6696 11.152 43.073 11.5355C42.4835 11.9119 41.9828 12.4624 41.5708 13.1868C41.166 13.9112 40.8819 14.7884 40.7186 15.8182C40.5481 16.8622 40.5446 17.75 40.7079 18.4815C40.8713 19.2131 41.1838 19.7706 41.6454 20.1541C42.1071 20.5376 42.6895 20.7294 43.3926 20.7294C43.9181 20.7294 44.4047 20.6229 44.8521 20.4098C45.3066 20.1967 45.7044 19.8878 46.0453 19.483C46.3862 19.071 46.649 18.5774 46.8336 18.0021H51.1163C50.8251 19.2592 50.296 20.3601 49.5289 21.3047C48.769 22.2493 47.8137 22.9879 46.6632 23.5206C45.5126 24.0533 44.2093 24.3196 42.7534 24.3196ZM59.1463 14.5398L57.5696 24H53.0419L56.6641 2.18182H61.0639L59.7003 10.5234H59.8814C60.407 9.55753 61.1278 8.80114 62.044 8.25426C62.9602 7.70028 64.0433 7.4233 65.2933 7.4233C66.4297 7.4233 67.3778 7.67187 68.1378 8.16903C68.9048 8.65909 69.4482 9.36577 69.7678 10.2891C70.0874 11.2053 70.1406 12.3026 69.9276 13.581L68.1804 24H63.6527L65.2507 14.3906C65.4141 13.3821 65.2827 12.5973 64.8565 12.0362C64.4375 11.4751 63.7699 11.1946 62.8537 11.1946C62.2358 11.1946 61.6676 11.326 61.1491 11.5888C60.6307 11.8516 60.1939 12.2351 59.8388 12.7393C59.4908 13.2365 59.2599 13.8366 59.1463 14.5398ZM71.7306 24L74.4579 7.63636H78.9963L76.269 24H71.7306ZM77.1958 5.50568C76.5211 5.50568 75.9636 5.28196 75.5233 4.83452C75.09 4.37997 74.9125 3.8402 74.9906 3.2152C75.0687 2.57599 75.3741 2.03622 75.9068 1.59588C76.4395 1.14844 77.0431 0.924714 77.7179 0.924714C78.3926 0.924714 78.943 1.14844 79.3691 1.59588C79.7953 2.03622 79.9728 2.57599 79.9018 3.2152C79.8308 3.8402 79.5289 4.37997 78.9963 4.83452C78.4707 5.28196 77.8706 5.50568 77.1958 5.50568ZM87.8306 24H79.9897L83.6119 2.18182H91.3036C93.4982 2.18182 95.32 2.62926 96.7688 3.52415C98.2248 4.41903 99.2511 5.70099 99.8477 7.37003C100.444 9.03196 100.551 11.017 100.167 13.3253C99.7979 15.5554 99.0629 17.4695 97.962 19.0675C96.8612 20.6584 95.4514 21.88 93.7326 22.7322C92.0138 23.5774 90.0465 24 87.8306 24ZM85.2631 20.0476H88.0969C89.4677 20.0476 90.668 19.7919 91.6978 19.2805C92.7347 18.7692 93.5835 17.9808 94.244 16.9155C94.9116 15.8501 95.3839 14.4865 95.6609 12.8246C95.9237 11.2479 95.9059 9.96946 95.6076 8.98935C95.3164 8.00213 94.7518 7.28125 93.9137 6.8267C93.0756 6.36506 91.9748 6.13423 90.6112 6.13423H87.5749L85.2631 20.0476ZM101.731 24L104.458 7.63636H108.858L108.378 10.4915H108.549C109.018 9.47585 109.646 8.70881 110.434 8.19034C111.23 7.66477 112.086 7.40199 113.002 7.40199C113.229 7.40199 113.467 7.41619 113.716 7.4446C113.971 7.46591 114.199 7.50142 114.398 7.55114L113.716 11.5888C113.517 11.5178 113.233 11.4609 112.863 11.4183C112.501 11.3686 112.157 11.3438 111.83 11.3438C111.17 11.3438 110.555 11.4893 109.987 11.7805C109.419 12.0646 108.939 12.4624 108.549 12.9737C108.165 13.4851 107.913 14.0746 107.792 14.7422L106.269 24H101.731ZM114.006 24L116.733 7.63636H121.272L118.544 24H114.006ZM119.471 5.50568C118.797 5.50568 118.239 5.28196 117.799 4.83452C117.365 4.37997 117.188 3.8402 117.266 3.2152C117.344 2.57599 117.65 2.03622 118.182 1.59588C118.715 1.14844 119.319 0.924714 119.993 0.924714C120.668 0.924714 121.218 1.14844 121.645 1.59588C122.071 2.03622 122.248 2.57599 122.177 3.2152C122.106 3.8402 121.804 4.37997 121.272 4.83452C120.746 5.28196 120.146 5.50568 119.471 5.50568ZM140.163 7.63636L131.715 24H126.601L123.607 7.63636H128.231L129.68 19.3445H129.85L135.188 7.63636H140.163ZM146.645 24.3196C144.969 24.3196 143.581 23.9787 142.48 23.2969C141.379 22.608 140.605 21.6349 140.157 20.3778C139.717 19.1136 139.643 17.6186 139.934 15.8928C140.218 14.2095 140.79 12.7322 141.649 11.4609C142.515 10.1896 143.602 9.19886 144.909 8.48864C146.216 7.77841 147.672 7.4233 149.277 7.4233C150.356 7.4233 151.333 7.5973 152.206 7.94531C153.087 8.28622 153.819 8.80469 154.401 9.50071C154.983 10.1896 155.381 11.0526 155.594 12.0895C155.814 13.1264 155.811 14.3409 155.584 15.733L155.381 16.9794H141.574L142.011 14.1669H151.557C151.663 13.5135 151.621 12.9347 151.429 12.4304C151.237 11.9261 150.917 11.532 150.47 11.2479C150.023 10.9567 149.472 10.8111 148.819 10.8111C148.151 10.8111 147.526 10.9744 146.944 11.3011C146.361 11.6278 145.871 12.0575 145.474 12.5902C145.083 13.1158 144.831 13.6875 144.717 14.3054L144.216 17.0966C144.074 17.956 144.103 18.6697 144.302 19.2379C144.508 19.8061 144.863 20.2322 145.367 20.5163C145.871 20.7933 146.51 20.9318 147.285 20.9318C147.789 20.9318 148.261 20.8608 148.702 20.7188C149.149 20.5767 149.547 20.3672 149.895 20.0902C150.243 19.8061 150.527 19.4545 150.747 19.0355L154.891 19.3125C154.508 20.321 153.925 21.2017 153.144 21.9545C152.363 22.7003 151.422 23.2827 150.321 23.7017C149.227 24.1136 148.002 24.3196 146.645 24.3196Z" fill="white"/>
</svg>
