<svg width="53" height="50" viewBox="0 0 53 50" fill="none" xmlns="http://www.w3.org/2000/svg">
<rect width="52.5929" height="49.2224" rx="5" fill="#FB5454"/>
<rect x="10" y="9" width="32" height="32" rx="6" fill="#F87171"/>
<path d="M22.7957 20.7229L22.7963 20.7235L26.494 24.43L30.2043 20.7375L30.5577 21.0913L30.205 20.7369L30.2047 20.7371C30.5023 20.4403 30.9791 20.4404 31.2766 20.7375C31.5745 21.0351 31.5745 21.5126 31.2766 21.8102L31.2759 21.8108L27.5658 25.5031L31.262 29.2081C31.2621 29.2082 31.2622 29.2083 31.2623 29.2084C31.5599 29.506 31.5597 29.9833 31.262 30.2807L30.9086 29.927L31.2619 30.2807C31.1232 30.4193 30.9225 30.5 30.7331 30.5C30.5438 30.5 30.3431 30.4193 30.2043 30.2807L30.5577 29.927L30.2043 30.2807L26.4933 26.5743L22.7963 30.2801L22.7957 30.2808C22.6569 30.4193 22.4562 30.5 22.2669 30.5C22.0775 30.5 21.8768 30.4193 21.7381 30.2808L22.0914 29.927L21.738 30.2807C21.4404 29.9835 21.4401 29.5065 21.7372 29.2089C21.7375 29.2087 21.7378 29.2084 21.738 29.2081L25.4215 25.5025L21.7234 21.7956C21.7233 21.7954 21.7232 21.7953 21.7231 21.7952C21.4255 21.4976 21.4256 21.0203 21.7234 20.7229C22.021 20.4257 22.4981 20.4257 22.7957 20.7229Z" fill="white" stroke="white"/>
</svg>
