<svg width="18" height="18" viewBox="0 0 18 18" fill="none" xmlns="http://www.w3.org/2000/svg">
<path d="M16.8749 11.6719C16.5374 11.6719 16.228 11.9531 16.228 12.3187V14.8219C16.228 15.075 16.0312 15.2719 15.778 15.2719H2.22178C1.96865 15.2719 1.77178 15.075 1.77178 14.8219V12.3187C1.77178 11.9812 1.49053 11.6719 1.1249 11.6719C0.759277 11.6719 0.478027 11.9531 0.478027 12.3187V14.8219C0.478027 15.7781 1.2374 16.5375 2.19365 16.5375H15.778C16.7343 16.5375 17.4937 15.7781 17.4937 14.8219V12.3187C17.5218 11.9531 17.2124 11.6719 16.8749 11.6719Z" fill="#64748B"/>
<path d="M8.54976 12.3469C8.66226 12.4594 8.83101 12.5156 8.99976 12.5156C9.16851 12.5156 9.30914 12.4594 9.44976 12.3469L13.4716 8.43752C13.7248 8.1844 13.7248 7.79065 13.4998 7.53752C13.2466 7.2844 12.8529 7.2844 12.5998 7.5094L9.64664 10.4063V2.1094C9.64664 1.7719 9.36539 1.46252 8.99976 1.46252C8.66226 1.46252 8.35289 1.74377 8.35289 2.1094V10.4063L5.39976 7.53752C5.14664 7.2844 4.75289 7.31252 4.49976 7.53752C4.24664 7.79065 4.27476 8.1844 4.49976 8.43752L8.54976 12.3469Z" fill="#64748B"/>
</svg>
