<svg width="18" height="18" viewBox="0 0 18 18" fill="none" xmlns="http://www.w3.org/2000/svg">
<path d="M15.75 2.7H2.24999C1.29374 2.7 0.478119 3.4875 0.478119 4.47187V13.5844C0.478119 14.5406 1.26562 15.3562 2.24999 15.3562H15.75C16.7062 15.3562 17.5219 14.5687 17.5219 13.5844V4.44375C17.5219 3.4875 16.7062 2.7 15.75 2.7ZM15.75 3.96562C15.7781 3.96562 15.8062 3.96562 15.8344 3.96562L8.99999 8.35312L2.16562 3.96562C2.19374 3.96562 2.22187 3.96562 2.24999 3.96562H15.75ZM15.75 14.0344H2.24999C1.96874 14.0344 1.74374 13.8094 1.74374 13.5281V5.20312L8.32499 9.42187C8.52187 9.5625 8.74687 9.61875 8.97187 9.61875C9.19687 9.61875 9.42187 9.5625 9.61874 9.42187L16.2 5.20312V13.5562C16.2562 13.8375 16.0312 14.0344 15.75 14.0344Z" fill="#DEE4EE"/>
</svg>
