<svg width="17" height="18" viewBox="0 0 17 18" fill="none" xmlns="http://www.w3.org/2000/svg">
<path d="M10.35 0.492188C10.0125 0.492188 9.70312 0.773438 9.70312 1.13906V6.76406C9.70312 7.10156 9.98437 7.41094 10.35 7.41094H16.3687C16.5375 7.41094 16.7062 7.32656 16.8187 7.21406C16.9312 7.07344 16.9875 6.90469 16.9875 6.73594C16.7625 3.22031 13.8375 0.492188 10.35 0.492188ZM10.9687 6.08906V1.78594C13.3031 2.06719 15.1875 3.81094 15.6375 6.11719H10.9687V6.08906Z" fill="#DEE4EE"/>
<path d="M14.8781 8.67657H8.60625V2.62969C8.60625 2.29219 8.325 2.01094 7.9875 2.01094C7.90313 2.01094 7.81875 2.01094 7.73438 2.01094C3.45938 1.98282 0 5.47032 0 9.74532C0 14.0203 3.4875 17.5078 7.7625 17.5078C12.0375 17.5078 15.525 14.0203 15.525 9.74532C15.525 9.57657 15.525 9.40782 15.4969 9.26719C15.4969 8.92969 15.2156 8.67657 14.8781 8.67657ZM7.7625 16.2422C4.1625 16.2422 1.26562 13.3453 1.26562 9.74532C1.26562 6.31407 3.96563 3.47344 7.36875 3.27657V9.29532C7.36875 9.63282 7.65 9.94219 8.01562 9.94219H14.2875C14.175 13.4297 11.2781 16.2422 7.7625 16.2422Z" fill="#DEE4EE"/>
</svg>
