<svg width="18" height="18" viewBox="0 0 18 18" fill="none" xmlns="http://www.w3.org/2000/svg">
<g clip-path="url(#clip0_970_296)">
<path d="M3.45937 0.984375H1.68749C1.04062 0.984375 0.478119 1.51875 0.478119 2.19375V3.96563C0.478119 4.6125 1.01249 5.175 1.68749 5.175H3.45937C4.10624 5.175 4.66874 4.64063 4.66874 3.96563V2.16562C4.64062 1.51875 4.10624 0.984375 3.45937 0.984375ZM3.37499 3.88125H1.77187V2.25H3.37499V3.88125Z" fill="#DEE4EE"/>
<path d="M7.22811 3.7125H16.875C17.2125 3.7125 17.5219 3.43125 17.5219 3.06563C17.5219 2.7 17.2406 2.41875 16.875 2.41875H7.22811C6.89061 2.41875 6.58124 2.7 6.58124 3.06563C6.58124 3.43125 6.89061 3.7125 7.22811 3.7125Z" fill="#DEE4EE"/>
<path d="M3.45937 6.75H1.68749C1.04062 6.75 0.478119 7.28437 0.478119 7.95937V9.73125C0.478119 10.3781 1.01249 10.9406 1.68749 10.9406H3.45937C4.10624 10.9406 4.66874 10.4062 4.66874 9.73125V7.95937C4.64062 7.28437 4.10624 6.75 3.45937 6.75ZM3.37499 9.64687H1.77187V8.01562H3.37499V9.64687Z" fill="#DEE4EE"/>
<path d="M16.875 8.2125H7.22811C6.89061 8.2125 6.58124 8.49375 6.58124 8.85938C6.58124 9.225 6.86249 9.47813 7.22811 9.47813H16.875C17.2125 9.47813 17.5219 9.19688 17.5219 8.85938C17.5219 8.52188 17.2125 8.2125 16.875 8.2125Z" fill="#DEE4EE"/>
<path d="M3.45937 12.8531H1.68749C1.04062 12.8531 0.478119 13.3875 0.478119 14.0625V15.8344C0.478119 16.4813 1.01249 17.0438 1.68749 17.0438H3.45937C4.10624 17.0438 4.66874 16.5094 4.66874 15.8344V14.0625C4.64062 13.3875 4.10624 12.8531 3.45937 12.8531ZM3.37499 15.75H1.77187V14.1188H3.37499V15.75Z" fill="#DEE4EE"/>
<path d="M16.875 14.2875H7.22811C6.89061 14.2875 6.58124 14.5687 6.58124 14.9344C6.58124 15.3 6.86249 15.5812 7.22811 15.5812H16.875C17.2125 15.5812 17.5219 15.3 17.5219 14.9344C17.5219 14.5687 17.2125 14.2875 16.875 14.2875Z" fill="#DEE4EE"/>
</g>
<defs>
<clipPath id="clip0_970_296">
<rect width="18" height="18" fill="white"/>
</clipPath>
</defs>
</svg>
