<svg width="422" height="433" viewBox="0 0 422 433" fill="none" xmlns="http://www.w3.org/2000/svg">
<g clip-path="url(#clip0_944_5189)">
<path d="M41.3852 364.096L37.6836 349.159C31.1204 346.313 24.4056 343.848 17.5711 341.776L17.1039 348.718L15.2091 341.07C6.73311 338.591 0.966797 337.501 0.966797 337.501C0.966797 337.501 8.75378 367.804 25.0918 390.971L44.127 394.392L29.3391 396.574C31.3942 399.104 33.6028 401.499 35.9518 403.746C59.7162 426.315 86.1858 436.67 95.0726 426.873C103.959 417.077 91.8985 390.841 68.1341 368.275C60.7669 361.278 51.5123 355.663 42.248 351.243L41.3852 364.096Z" fill="#F2F2F2"/>
<path d="M76.5876 347.872L80.9652 333.128C76.785 327.221 72.2825 321.56 67.4791 316.171L63.572 321.867L65.8133 314.318C59.8089 307.715 55.4239 303.732 55.4239 303.732C55.4239 303.732 46.782 333.792 49.0617 362.264L63.6285 375.26L49.8647 369.306C50.3463 372.56 51.0274 375.779 51.9039 378.944C60.8454 410.832 78.2731 433.695 90.8293 430.01C103.386 426.324 106.316 397.486 97.3749 365.598C94.6032 355.712 89.5168 346.011 83.8193 337.329L76.5876 347.872Z" fill="#F2F2F2"/>
<path d="M294.249 102.933H291.94V38.2142C291.94 33.2951 290.993 28.4241 289.153 23.8793C287.313 19.3346 284.616 15.2052 281.216 11.7268C277.817 8.24839 273.781 5.48919 269.339 3.6067C264.897 1.72421 260.136 0.75531 255.328 0.75531H121.309C111.599 0.75531 102.287 4.70187 95.4206 11.7268C88.5546 18.7517 84.6973 28.2795 84.6973 38.2142V393.272C84.6973 398.192 85.6442 403.063 87.4842 407.607C89.3241 412.152 92.0209 416.282 95.4206 419.76C98.8203 423.238 102.856 425.998 107.298 427.88C111.74 429.763 116.501 430.731 121.309 430.731H255.328C265.038 430.731 274.35 426.785 281.216 419.76C288.082 412.735 291.939 403.207 291.939 393.272V149.001H294.248L294.249 102.933Z" fill="#E6E6E6"/>
<path d="M256.806 10.4972H239.313C240.118 12.5153 240.425 14.7049 240.207 16.873C239.99 19.0412 239.255 21.1213 238.066 22.9302C236.878 24.7391 235.273 26.2212 233.393 27.246C231.513 28.2708 229.415 28.8067 227.285 28.8066H150.507C148.377 28.8065 146.28 28.2704 144.4 27.2456C142.52 26.2208 140.915 24.7386 139.727 22.9297C138.539 21.1209 137.803 19.0408 137.586 16.8727C137.369 14.7047 137.676 12.5152 138.48 10.4972H122.141C114.89 10.4972 107.935 13.4444 102.808 18.6906C97.6804 23.9367 94.7998 31.052 94.7998 38.4711V393.013C94.7998 400.433 97.6804 407.548 102.808 412.794C107.935 418.04 114.89 420.987 122.141 420.987H256.806C264.057 420.987 271.011 418.04 276.139 412.794C281.266 407.548 284.147 400.433 284.147 393.013V38.4706C284.147 31.0515 281.266 23.9364 276.139 18.6904C271.011 13.4444 264.057 10.4972 256.806 10.4972Z" fill="white"/>
<path d="M172.313 151.729C172.313 149.251 172.95 146.816 174.162 144.67C175.373 142.524 177.116 140.742 179.214 139.504C177.117 138.265 174.738 137.612 172.316 137.612C169.894 137.612 167.514 138.264 165.417 139.503C163.319 140.742 161.577 142.524 160.366 144.67C159.155 146.816 158.518 149.25 158.518 151.728C158.518 154.206 159.155 156.64 160.366 158.786C161.577 160.932 163.319 162.714 165.417 163.953C167.514 165.192 169.894 165.844 172.316 165.844C174.738 165.843 177.117 165.191 179.214 163.951C177.116 162.714 175.373 160.932 174.162 158.787C172.95 156.641 172.313 154.207 172.313 151.729Z" fill="#CCCCCC"/>
<path d="M189.657 151.729C189.656 149.251 190.294 146.816 191.506 144.67C192.717 142.524 194.46 140.742 196.558 139.504C194.461 138.265 192.082 137.612 189.66 137.612C187.238 137.612 184.858 138.264 182.761 139.503C180.663 140.742 178.921 142.524 177.71 144.67C176.499 146.816 175.861 149.25 175.861 151.728C175.861 154.206 176.499 156.64 177.71 158.786C178.921 160.932 180.663 162.714 182.761 163.953C184.858 165.192 187.238 165.844 189.66 165.844C192.082 165.843 194.461 165.191 196.558 163.951C194.46 162.714 192.717 160.932 191.506 158.787C190.294 156.641 189.657 154.207 189.657 151.729Z" fill="#CCCCCC"/>
<path d="M206.607 165.844C214.227 165.844 220.403 159.524 220.403 151.728C220.403 143.932 214.227 137.612 206.607 137.612C198.987 137.612 192.811 143.932 192.811 151.728C192.811 159.524 198.987 165.844 206.607 165.844Z" fill="#3056D3"/>
<path d="M229.665 195.817H149.256C148.49 195.816 147.756 195.505 147.215 194.951C146.674 194.397 146.369 193.646 146.368 192.863V110.593C146.369 109.81 146.674 109.059 147.215 108.505C147.756 107.952 148.49 107.64 149.256 107.639H229.665C230.43 107.64 231.164 107.952 231.705 108.505C232.247 109.059 232.551 109.81 232.552 110.593V192.863C232.551 193.646 232.247 194.397 231.705 194.951C231.164 195.505 230.43 195.816 229.665 195.817ZM149.256 108.822C148.796 108.822 148.356 109.009 148.031 109.341C147.706 109.673 147.524 110.124 147.523 110.594V192.863C147.524 193.333 147.706 193.784 148.031 194.116C148.356 194.449 148.796 194.635 149.256 194.636H229.665C230.124 194.635 230.564 194.449 230.889 194.116C231.214 193.784 231.396 193.333 231.397 192.863V110.594C231.396 110.124 231.214 109.673 230.889 109.341C230.564 109.009 230.124 108.822 229.665 108.822H149.256Z" fill="#CCCCCC"/>
<path d="M247.619 258.881H124.296V260.062H247.619V258.881Z" fill="#CCCCCC"/>
<path d="M128.191 251.502C130.341 251.502 132.085 249.718 132.085 247.518C132.085 245.317 130.341 243.533 128.191 243.533C126.04 243.533 124.296 245.317 124.296 247.518C124.296 249.718 126.04 251.502 128.191 251.502Z" fill="#3056D3"/>
<path d="M247.619 298.726H124.296V299.907H247.619V298.726Z" fill="#CCCCCC"/>
<path d="M128.191 291.348C130.341 291.348 132.085 289.564 132.085 287.363C132.085 285.162 130.341 283.378 128.191 283.378C126.04 283.378 124.296 285.162 124.296 287.363C124.296 289.564 126.04 291.348 128.191 291.348Z" fill="#3056D3"/>
<path d="M245.362 344.099H206.389C205.716 344.099 205.07 343.825 204.594 343.338C204.118 342.851 203.85 342.19 203.85 341.501V327.525C203.85 326.837 204.118 326.176 204.594 325.689C205.07 325.202 205.716 324.928 206.389 324.927H245.362C246.036 324.928 246.681 325.202 247.157 325.689C247.633 326.176 247.901 326.837 247.902 327.525V341.501C247.901 342.19 247.633 342.851 247.157 343.338C246.681 343.825 246.036 344.099 245.362 344.099Z" fill="#3056D3"/>
<path d="M140.895 251.502C143.046 251.502 144.789 249.718 144.789 247.518C144.789 245.317 143.046 243.533 140.895 243.533C138.744 243.533 137 245.317 137 247.518C137 249.718 138.744 251.502 140.895 251.502Z" fill="#3056D3"/>
<path d="M153.599 251.502C155.75 251.502 157.493 249.718 157.493 247.518C157.493 245.317 155.75 243.533 153.599 243.533C151.448 243.533 149.704 245.317 149.704 247.518C149.704 249.718 151.448 251.502 153.599 251.502Z" fill="#3056D3"/>
<path d="M140.895 291.348C143.046 291.348 144.789 289.564 144.789 287.363C144.789 285.162 143.046 283.378 140.895 283.378C138.744 283.378 137 285.162 137 287.363C137 289.564 138.744 291.348 140.895 291.348Z" fill="#3056D3"/>
<path d="M153.599 291.348C155.75 291.348 157.493 289.564 157.493 287.363C157.493 285.162 155.75 283.378 153.599 283.378C151.448 283.378 149.704 285.162 149.704 287.363C149.704 289.564 151.448 291.348 153.599 291.348Z" fill="#3056D3"/>
<path d="M319.599 283.336C319.876 283.466 320.142 283.618 320.395 283.791L345.704 272.739L346.607 265.917L356.72 265.854L356.123 281.499L322.718 290.537C322.648 290.775 322.563 291.008 322.465 291.235C321.982 292.289 321.206 293.174 320.233 293.778C319.26 294.383 318.134 294.679 316.997 294.631C315.86 294.583 314.762 294.192 313.841 293.508C312.921 292.823 312.218 291.876 311.822 290.784C311.426 289.692 311.354 288.505 311.615 287.372C311.876 286.239 312.459 285.209 313.29 284.414C314.12 283.618 315.163 283.091 316.285 282.899C317.408 282.708 318.561 282.86 319.599 283.336Z" fill="#FFB8B8"/>
<path d="M360.398 425.105H353.48L350.189 397.804L360.399 397.805L360.398 425.105Z" fill="#FFB8B8"/>
<path d="M348.539 423.083H361.88V431.677H340.139C340.139 429.398 341.024 427.212 342.599 425.6C344.174 423.988 346.311 423.083 348.539 423.083Z" fill="#1C2434"/>
<path d="M387.302 423.105L380.417 423.799L374.525 396.96L384.687 395.936L387.302 423.105Z" fill="#FFB8B8"/>
<path d="M375.307 422.282L388.584 420.944L389.407 429.497L367.771 431.677C367.663 430.554 367.772 429.42 368.092 428.34C368.412 427.26 368.937 426.255 369.637 425.383C370.337 424.51 371.198 423.787 372.171 423.255C373.143 422.723 374.209 422.392 375.307 422.282Z" fill="#1C2434"/>
<path d="M362.324 236.961C369.978 236.961 376.183 230.612 376.183 222.781C376.183 214.95 369.978 208.601 362.324 208.601C354.67 208.601 348.465 214.95 348.465 222.781C348.465 230.612 354.67 236.961 362.324 236.961Z" fill="#FFB8B8"/>
<path d="M351.934 419.584C351.34 419.585 350.764 419.372 350.308 418.981C349.852 418.591 349.546 418.048 349.443 417.449C345.862 397.112 334.158 330.616 333.878 328.774C333.872 328.731 333.869 328.689 333.869 328.646V323.688C333.869 323.507 333.924 323.331 334.027 323.184L335.573 320.968C335.646 320.862 335.743 320.774 335.855 320.711C335.967 320.649 336.091 320.613 336.218 320.608C345.033 320.185 373.903 318.946 375.297 320.728C376.698 322.52 376.203 327.949 376.09 329.019L376.095 329.131L389.065 413.995C389.167 414.672 389.004 415.363 388.612 415.917C388.219 416.472 387.629 416.847 386.969 416.96L378.868 418.325C378.265 418.424 377.647 418.299 377.126 417.971C376.606 417.643 376.218 417.136 376.033 416.54C373.527 408.348 365.126 380.793 362.214 370.13C362.196 370.063 362.154 370.004 362.097 369.966C362.04 369.927 361.971 369.911 361.903 369.921C361.835 369.931 361.773 369.966 361.729 370.019C361.684 370.072 361.66 370.14 361.661 370.21C361.806 380.374 362.158 406.307 362.279 415.263L362.292 416.228C362.298 416.881 362.063 417.512 361.636 417.997C361.208 418.482 360.618 418.785 359.983 418.847L352.171 419.573C352.092 419.58 352.012 419.584 351.934 419.584Z" fill="#1C2434"/>
<path d="M353.528 242.537C351.11 244.008 349.662 246.711 348.832 249.462C347.294 254.554 346.369 259.82 346.076 265.142L345.198 281.076L334.333 323.319C343.75 331.471 349.182 329.619 361.859 322.95C374.535 316.282 375.984 325.174 375.984 325.174L378.518 289.23L382.14 249.953C381.327 248.952 380.407 248.046 379.397 247.255C376.049 244.591 372.155 242.74 368.006 241.841C363.858 240.941 359.564 241.016 355.448 242.061L353.528 242.537Z" fill="#3056D3"/>
<path d="M349.998 291.868C350.291 291.98 350.574 292.116 350.845 292.274L375.87 279.459L376.285 272.516L386.608 271.788L387.161 287.614L353.719 298.93C353.446 300.128 352.823 301.213 351.932 302.04C351.042 302.867 349.926 303.397 348.734 303.56C347.542 303.723 346.33 303.51 345.259 302.951C344.187 302.392 343.308 301.512 342.737 300.429C342.167 299.346 341.932 298.11 342.064 296.887C342.196 295.664 342.689 294.512 343.478 293.582C344.266 292.653 345.312 291.991 346.477 291.685C347.641 291.378 348.87 291.442 349.998 291.868Z" fill="#FFB8B8"/>
<path d="M381.959 250.133C388.116 252.356 389.2 276.444 389.2 276.444C381.957 272.368 373.264 279.038 373.264 279.038C373.264 279.038 371.453 272.738 369.28 264.586C368.624 262.293 368.546 259.867 369.052 257.535C369.559 255.203 370.634 253.039 372.177 251.246C372.177 251.246 375.801 247.908 381.959 250.133Z" fill="#3056D3"/>
<path d="M374.75 226.531C373.024 225.118 370.668 227.687 370.668 227.687L369.286 214.966C369.286 214.966 360.652 216.024 355.127 214.613C349.601 213.202 348.738 219.737 348.738 219.737C348.453 217.097 348.395 214.437 348.565 211.787C348.91 208.607 353.4 205.426 361.343 203.306C369.286 201.186 373.43 210.373 373.43 210.373C378.957 213.2 376.477 227.945 374.75 226.531Z" fill="#1C2434"/>
</g>
<defs>
<clipPath id="clip0_944_5189">
<rect width="420.298" height="431.31" fill="white" transform="translate(0.966797 0.75531)"/>
</clipPath>
</defs>
</svg>
