<svg width="18" height="18" viewBox="0 0 18 18" fill="none" xmlns="http://www.w3.org/2000/svg">
<path d="M14.2875 0.506248H3.7125C2.75625 0.506248 1.96875 1.29375 1.96875 2.25V15.75C1.96875 16.7062 2.75625 17.5219 3.74063 17.5219H14.3156C15.2719 17.5219 16.0875 16.7344 16.0875 15.75V2.25C16.0313 1.29375 15.2438 0.506248 14.2875 0.506248ZM14.7656 15.75C14.7656 16.0312 14.5406 16.2562 14.2594 16.2562H3.7125C3.43125 16.2562 3.20625 16.0312 3.20625 15.75V2.25C3.20625 1.96875 3.43125 1.74375 3.7125 1.74375H14.2875C14.5688 1.74375 14.7938 1.96875 14.7938 2.25V15.75H14.7656Z" fill="#DEE4EE"/>
<path d="M12.7969 2.61562H9.73126C9.22501 2.61562 8.80313 3.0375 8.80313 3.54375V7.25625C8.80313 7.7625 9.22501 8.18437 9.73126 8.18437H12.7969C13.3031 8.18437 13.725 7.7625 13.725 7.25625V3.51562C13.6969 3.0375 13.3031 2.61562 12.7969 2.61562ZM12.4313 6.89062H10.0688V3.88125H12.4313V6.89062Z" fill="#DEE4EE"/>
<path d="M4.97813 4.35938H7.03126C7.36876 4.35938 7.67813 4.07812 7.67813 3.7125C7.67813 3.34687 7.39688 3.09375 7.03126 3.09375H4.95001C4.61251 3.09375 4.30313 3.375 4.30313 3.74063C4.30313 4.10625 4.61251 4.35938 4.97813 4.35938Z" fill="#DEE4EE"/>
<path d="M4.97813 7.93125H7.03126C7.36876 7.93125 7.67813 7.65 7.67813 7.28437C7.67813 6.91875 7.39688 6.6375 7.03126 6.6375H4.95001C4.61251 6.6375 4.30313 6.91875 4.30313 7.28437C4.30313 7.65 4.61251 7.93125 4.97813 7.93125Z" fill="#DEE4EE"/>
<path d="M13.0781 10.2375H4.97811C4.64061 10.2375 4.33124 10.5188 4.33124 10.8844C4.33124 11.25 4.61249 11.5313 4.97811 11.5313H13.0781C13.4156 11.5313 13.725 11.25 13.725 10.8844C13.725 10.5188 13.4156 10.2375 13.0781 10.2375Z" fill="#DEE4EE"/>
<path d="M13.0781 13.8094H4.97811C4.64061 13.8094 4.33124 14.0906 4.33124 14.4562C4.33124 14.8219 4.61249 15.1031 4.97811 15.1031H13.0781C13.4156 15.1031 13.725 14.8219 13.725 14.4562C13.725 14.0906 13.4156 13.8094 13.0781 13.8094Z" fill="#DEE4EE"/>
</svg>
