<svg width="18" height="19" viewBox="0 0 18 19" fill="none" xmlns="http://www.w3.org/2000/svg">
<g clip-path="url(#clip0_937_843)">
<path d="M9.00001 7.84738C11.0813 7.84738 12.7688 6.21613 12.7688 4.19113C12.7688 2.16613 11.0813 0.534882 9.00001 0.534882C6.91876 0.534882 5.23126 2.16613 5.23126 4.19113C5.23126 6.21613 6.91876 7.84738 9.00001 7.84738ZM9.00001 1.82863C10.3781 1.82863 11.5031 2.89738 11.5031 4.21926C11.5031 5.54113 10.3781 6.60988 9.00001 6.60988C7.62189 6.60988 6.49689 5.54113 6.49689 4.21926C6.49689 2.89738 7.62189 1.82863 9.00001 1.82863Z" fill="#DEE4EE"/>
<path d="M10.8281 9.11301H7.17189C4.16251 9.11301 1.71564 11.588 1.71564 14.5974V16.9318C1.71564 17.2693 1.99689 17.5786 2.36251 17.5786C2.72814 17.5786 3.00939 17.2974 3.00939 16.9318V14.5974C3.00939 12.2911 4.89376 10.3786 7.22814 10.3786H10.8563C13.1625 10.3786 15.075 12.263 15.075 14.5974V16.9318C15.075 17.2693 15.3563 17.5786 15.7219 17.5786C16.0875 17.5786 16.3688 17.2974 16.3688 16.9318V14.5974C16.2844 11.588 13.8375 9.11301 10.8281 9.11301Z" fill="#DEE4EE"/>
</g>
<defs>
<clipPath id="clip0_937_843">
<rect width="18" height="18" fill="white" transform="translate(0 0.0567627)"/>
</clipPath>
</defs>
</svg>
